<svg width="32" height="32" viewBox="0 0 32 32" fill="none" xmlns="http://www.w3.org/2000/svg">
<g id="Trash">
<g id="Trash_2">
<path id="Vector" d="M25 8.45456L7 8.45456" stroke="white" stroke-width="1.63636" stroke-linecap="round" stroke-linejoin="round"/>
<path id="Vector_2" d="M13.5469 13.3636V19.9091" stroke="white" stroke-width="1.63636" stroke-linecap="round" stroke-linejoin="round"/>
<path id="Vector_3" d="M18.4531 13.3636V19.9091" stroke="white" stroke-width="1.63636" stroke-linecap="round" stroke-linejoin="round"/>
<path id="Vector_4" d="M23.3601 8.45456V24C23.3601 24.217 23.2739 24.4251 23.1204 24.5786C22.967 24.732 22.7589 24.8182 22.5419 24.8182H9.45099C9.234 24.8182 9.02589 24.732 8.87245 24.5786C8.71901 24.4251 8.63281 24.217 8.63281 24V8.45456" stroke="white" stroke-width="1.63636" stroke-linecap="round" stroke-linejoin="round"/>
<path id="Vector_5" d="M20.0881 8.45455V6.81819C20.0881 6.3842 19.9157 5.96798 19.6088 5.6611C19.3019 5.35423 18.8857 5.18182 18.4517 5.18182H13.5426C13.1086 5.18182 12.6924 5.35423 12.3855 5.6611C12.0787 5.96798 11.9062 6.3842 11.9062 6.81819V8.45455" stroke="white" stroke-width="1.63636" stroke-linecap="round" stroke-linejoin="round"/>
</g>
</g>
</svg>
